<svg xmlns="http://www.w3.org/2000/svg" xml:space="preserve" width="655.359" height="655.359" style="shape-rendering:geometricPrecision;text-rendering:geometricPrecision;image-rendering:optimizeQuality;fill-rule:evenodd;clip-rule:evenodd" viewBox="0 0 6.827 6.827"><defs><style>.fil0{fill:#212121;fill-rule:nonzero}</style></defs><g id="Layer_x0020_1"><g id="_319409120"><path id="_319409024" class="fil0" d="M3.413 1.067a2.34 2.34 0 0 0-1.659.687 2.34 2.34 0 0 0-.687 1.66c0 .647.262 1.234.687 1.659a2.34 2.34 0 0 0 1.66.687 2.34 2.34 0 0 0 1.659-.687 2.34 2.34 0 0 0 .687-1.66 2.34 2.34 0 0 0-.687-1.66 2.34 2.34 0 0 0-1.66-.686zm-1.81.536a2.552 2.552 0 0 1 1.81-.75c.707 0 1.347.287 1.81.75.464.463.75 1.103.75 1.81 0 .707-.286 1.347-.75 1.81a2.552 2.552 0 0 1-1.81.75 2.552 2.552 0 0 1-1.81-.75 2.552 2.552 0 0 1-.75-1.81c0-.707.287-1.347.75-1.81z"/><path id="_319408928" class="fil0" d="M1.95 5.249a2.343 2.343 0 0 0 2.926 0 2.35 2.35 0 0 0-.656-.552 1.664 1.664 0 0 0-.807-.218c-.286 0-.559.081-.807.218a2.35 2.35 0 0 0-.656.552zm.566.562a2.56 2.56 0 0 1-.784-.468l-.075-.065.06-.08c.216-.278.484-.52.787-.687.278-.154.585-.245.91-.245.323 0 .63.091.909.245.303.167.57.41.786.687l.061.08-.075.065a2.56 2.56 0 0 1-2.579.468z"/><path id="_319409240" class="fil0" d="M1.732 1.483a2.56 2.56 0 0 1 3.363 0l.075.066-.061.08c-.215.277-.483.52-.786.687a1.874 1.874 0 0 1-.91.245c-.324 0-.631-.091-.91-.245a2.603 2.603 0 0 1-.785-.688l-.061-.079.075-.066zm.858-.268c-.233.087-.448.21-.64.363.186.222.409.414.656.551.248.137.521.219.807.219.287 0 .56-.082.807-.219.248-.137.47-.329.656-.551a2.343 2.343 0 0 0-2.286-.363z"/><path id="_319409504" class="fil0" d="M3.307 5.867V.96h.213v4.907z"/><path id="_319409288" class="fil0" d="M.96 3.307h4.907v.213H.96z"/></g><path style="fill:none" d="M0 0h6.827v6.827H0z"/></g></svg>